<mxfile host="app.diagrams.net" agent="Mozilla/5.0 (Windows NT 10.0; Win64; x64) AppleWebKit/537.36 (KHTML, like Gecko) Chrome/130.0.0.0 Safari/537.36" version="24.7.17">
  <diagram name="第 1 页" id="iFdbEdwA9SPwbYAapRF5">
    <mxGraphModel dx="1221" dy="733" grid="1" gridSize="10" guides="1" tooltips="1" connect="1" arrows="1" fold="1" page="1" pageScale="1" pageWidth="827" pageHeight="1169" math="0" shadow="0">
      <root>
        <mxCell id="0" />
        <mxCell id="1" parent="0" />
        <mxCell id="3MnkqhMfLCswFb0Mh2_X-1" value="&lt;font style=&quot;font-size: 18px;&quot;&gt;&lt;b&gt;文件系统GFS&lt;/b&gt;&lt;/font&gt;" style="rounded=0;whiteSpace=wrap;html=1;strokeColor=#263687;strokeWidth=3;perimeterSpacing=0;fillColor=#FF99CC;" vertex="1" parent="1">
          <mxGeometry x="281" y="410" width="299" height="110" as="geometry" />
        </mxCell>
        <mxCell id="3MnkqhMfLCswFb0Mh2_X-3" value="&lt;font style=&quot;font-size: 18px;&quot;&gt;&lt;b&gt;算法MapReduce&lt;/b&gt;&lt;/font&gt;" style="rounded=0;whiteSpace=wrap;html=1;strokeColor=#2d8726;strokeWidth=3;fillColor=#FFFF00;" vertex="1" parent="1">
          <mxGeometry x="281" y="170" width="299" height="130" as="geometry" />
        </mxCell>
        <mxCell id="3MnkqhMfLCswFb0Mh2_X-4" value="&lt;font style=&quot;font-size: 18px;&quot;&gt;&lt;b&gt;数据模型Bigtable&lt;/b&gt;&lt;/font&gt;" style="rounded=0;whiteSpace=wrap;html=1;strokeColor=#873526;strokeWidth=3;fillColor=#FFB366;" vertex="1" parent="1">
          <mxGeometry x="281" y="300" width="299" height="110" as="geometry" />
        </mxCell>
        <mxCell id="3MnkqhMfLCswFb0Mh2_X-5" value="&lt;font style=&quot;font-size: 16px;&quot;&gt;应用&lt;/font&gt;" style="rounded=0;whiteSpace=wrap;html=1;" vertex="1" parent="1">
          <mxGeometry x="281" y="110" width="99" height="60" as="geometry" />
        </mxCell>
        <mxCell id="3MnkqhMfLCswFb0Mh2_X-6" value="&lt;font style=&quot;font-size: 16px;&quot;&gt;应用&lt;/font&gt;" style="rounded=0;whiteSpace=wrap;html=1;" vertex="1" parent="1">
          <mxGeometry x="380" y="110" width="100" height="60" as="geometry" />
        </mxCell>
        <mxCell id="3MnkqhMfLCswFb0Mh2_X-7" value="&lt;font style=&quot;font-size: 16px;&quot;&gt;应用&lt;/font&gt;" style="rounded=0;whiteSpace=wrap;html=1;" vertex="1" parent="1">
          <mxGeometry x="480" y="110" width="100" height="60" as="geometry" />
        </mxCell>
      </root>
    </mxGraphModel>
  </diagram>
</mxfile>
